<svg width="509" height="479" viewBox="0 0 509 479" fill="none" xmlns="http://www.w3.org/2000/svg">
<path d="M99.5302 -13V85.4526C99.5302 92.8884 104.694 98.9162 111.065 98.9162H192.526C198.896 98.9162 204.06 104.944 204.06 112.38V207.467C204.06 214.902 209.224 220.93 215.595 220.93H297.056C303.426 220.93 308.59 226.958 308.59 234.394V329.481C308.59 336.916 313.755 342.944 320.125 342.944H401.586C407.956 342.944 413.121 348.972 413.121 356.408V451.495C413.121 458.93 418.285 464.958 424.655 464.958H509M-5 -13V85.4526C-5 92.8884 0.164109 98.9162 6.53436 98.9162H87.9958C94.366 98.9162 99.5302 104.944 99.5302 112.38V207.467C99.5302 214.902 104.694 220.93 111.065 220.93H192.526C198.896 220.93 204.06 226.958 204.06 234.394V329.481C204.06 336.916 198.896 342.944 192.526 342.944H111.065C104.694 342.944 99.5302 336.916 99.5302 329.481V232.711L99.4292 231.916C98.6553 225.818 94.2208 221.264 88.9404 221.146L79.345 220.93H6.53436C0.16411 220.93 -5 226.958 -5 234.394V329.481C-5 336.916 0.16411 342.944 6.53436 342.944H88.7167L91.4548 343.157C95.9991 343.511 99.5302 347.916 99.5302 353.233V363.56M99.5302 353.042V451.495C99.5302 458.93 104.694 464.958 111.065 464.958H192.526C198.896 464.958 204.06 470.986 204.06 478.422" stroke="url(#paint0_linear_235_615)" stroke-opacity="0.5" stroke-width="2"/>
<defs>
<linearGradient id="paint0_linear_235_615" x1="-5" y1="-13" x2="593.849" y2="621.856" gradientUnits="userSpaceOnUse">
<stop offset="0.0819437" stop-color="#F7F7F7"/>
<stop offset="0.208333" stop-color="#60A5FA"/>
<stop offset="0.526042" stop-color="#EDE771" stop-opacity="0.34"/>
<stop offset="0.9375" stop-color="#F64F59"/>
</linearGradient>
</defs>
</svg>
