<svg width="497" height="479" viewBox="0 0 497 479" fill="none" xmlns="http://www.w3.org/2000/svg">
<path d="M409.47 -13V85.4526C409.47 92.8884 404.306 98.9162 397.935 98.9162H316.474C310.104 98.9162 304.94 104.944 304.94 112.38V207.467C304.94 214.902 299.776 220.93 293.405 220.93H211.944C205.574 220.93 200.41 226.958 200.41 234.394V329.481C200.41 336.916 195.245 342.944 188.875 342.944H107.414C101.044 342.944 95.8794 348.972 95.8794 356.408V451.495C95.8794 458.93 90.7153 464.958 84.345 464.958H0M514 -13V85.4526C514 92.8884 508.836 98.9162 502.466 98.9162H421.004C414.634 98.9162 409.47 104.944 409.47 112.38V207.467C409.47 214.902 404.306 220.93 397.935 220.93H316.474C310.104 220.93 304.94 226.958 304.94 234.394V329.481C304.94 336.916 310.104 342.944 316.474 342.944H397.935C404.306 342.944 409.47 336.916 409.47 329.481V232.711L409.571 231.916C410.345 225.818 414.779 221.264 420.06 221.146L429.655 220.93H502.466C508.836 220.93 514 226.958 514 234.394V329.481C514 336.916 508.836 342.944 502.466 342.944H420.283L417.545 343.157C413.001 343.511 409.47 347.916 409.47 353.233V363.56M409.47 353.042V451.495C409.47 458.93 404.306 464.958 397.935 464.958H316.474C310.104 464.958 304.94 470.986 304.94 478.422" stroke="url(#paint0_linear_235_771)" stroke-opacity="0.5" stroke-width="2"/>
<defs>
<linearGradient id="paint0_linear_235_771" x1="514" y1="-13" x2="-84.8486" y2="621.856" gradientUnits="userSpaceOnUse">
<stop offset="0.0819437" stop-color="#F7F7F7"/>
<stop offset="0.208333" stop-color="#60A5FA"/>
<stop offset="0.526042" stop-color="#EDE771" stop-opacity="0.34"/>
<stop offset="0.9375" stop-color="#F64F59"/>
</linearGradient>
</defs>
</svg>
