<svg width="56" height="56" viewBox="0 0 56 56" fill="none" xmlns="http://www.w3.org/2000/svg">
<circle cx="28" cy="28" r="28" fill="#F9FDE7"/>
<g clip-path="url(#clip0_136_391)">
<mask id="mask0_136_391" style="mask-type:luminance" maskUnits="userSpaceOnUse" x="12" y="12" width="32" height="32">
<path d="M12 12.0001H43.9999V44H12V12.0001Z" fill="white"/>
</mask>
<g mask="url(#mask0_136_391)">
<path d="M31.2353 39.6515H24.7645V42.2467C24.7645 42.9578 25.341 43.5343 26.0521 43.5343H29.9477C30.6588 43.5343 31.2353 42.9578 31.2353 42.2467V39.6515Z" fill="#EAF6FF"/>
<path d="M27.9268 43.5344H26.0518C25.3412 43.5344 24.7643 42.9581 24.7643 42.2469V39.6512H26.6393V42.2469C26.6393 42.9581 27.2162 43.5344 27.9268 43.5344Z" fill="#D8ECFE"/>
<path d="M31.8827 39.6452H24.1171C23.581 39.6452 23.1465 39.2106 23.1465 38.6745C23.1465 38.1384 23.581 37.7038 24.1171 37.7038H31.8827C32.4188 37.7038 32.8533 38.1384 32.8533 38.6745C32.8533 39.2106 32.4188 39.6452 31.8827 39.6452Z" fill="#EAF6FF"/>
<path d="M25.9925 39.645H24.1175C23.5812 39.645 23.1462 39.2106 23.1462 38.6744C23.1462 38.4063 23.255 38.1638 23.4306 37.9881C23.6062 37.8125 23.8494 37.7038 24.1175 37.7038H25.9925C25.7244 37.7038 25.4812 37.8125 25.3056 37.9881C25.2153 38.0782 25.1437 38.1851 25.0949 38.3029C25.0461 38.4207 25.0211 38.5469 25.0212 38.6744C25.0212 39.2106 25.4562 39.645 25.9925 39.645Z" fill="#D8ECFE"/>
<path d="M29.6172 30.9226C29.6172 31.8164 28.8934 32.5407 27.9997 32.5407V37.2482H24.7641V36.3007C24.7641 35.6807 24.4103 35.112 23.8497 34.8464C20.5653 33.2901 18.2928 29.9458 18.2928 26.0701V26.0589H21.5285V26.0695C21.5285 26.9626 22.2528 27.6876 23.146 27.6876C24.0397 27.6876 24.7641 26.9626 24.7641 26.0695V26.0589H27.9997V29.3051C28.8934 29.3051 29.6172 30.0295 29.6172 30.9226Z" fill="#AEE69C"/>
<path d="M26.0143 36.3006V37.2481H24.7643V36.3006C24.7643 35.6806 24.4105 35.1119 23.8498 34.8462C20.5655 33.29 18.293 29.9456 18.293 26.07V26.0588H19.543V26.07C19.543 29.9456 21.8155 33.29 25.0998 34.8462C25.6605 35.1119 26.0143 35.6806 26.0143 36.3006Z" fill="#89DAA4"/>
<path d="M37.7068 26.0588V26.0694C37.7068 29.9438 35.4368 33.2875 32.1536 34.8444C31.5917 35.1107 31.2355 35.6788 31.2355 36.3007V37.7069H27.9999V32.5407C28.8936 32.5407 29.6174 31.8163 29.6174 30.9226C29.6174 30.0294 28.8936 29.3051 27.9999 29.3051V26.0588H31.2355C31.2412 25.1701 31.9636 24.4513 32.8537 24.4513C33.743 24.4513 34.4655 25.1701 34.4711 26.0588H37.7068Z" fill="#8AC9FE"/>
<path d="M37.7068 26.0588H34.4711C34.4655 25.17 33.743 24.4513 32.8537 24.4513C31.9636 24.4513 31.2412 25.17 31.2355 26.0588H27.9999V22.8338C27.1062 22.8338 26.3824 22.1094 26.3824 21.2157C26.3824 20.3219 27.1062 19.5982 27.9999 19.5982V16.3626C33.3574 16.3626 37.7011 20.7025 37.7068 26.0588Z" fill="#FFE177"/>
<path d="M26.3824 21.2157C26.3824 22.1095 27.1061 22.8338 27.9999 22.8338V26.0588H24.7643V26.0694C24.7643 26.9626 24.0399 27.6876 23.1461 27.6876C22.253 27.6876 21.5286 26.9626 21.5286 26.0694V26.0588H18.293C18.2987 20.6876 22.6286 16.3626 27.9999 16.3626V19.5982C27.1061 19.5982 26.3824 20.322 26.3824 21.2157Z" fill="#FE646F"/>
<path d="M27.9999 16.3626V16.4419C23.2225 17.0513 19.548 21.1113 19.543 26.0588H18.293C18.2987 20.6875 22.6287 16.3626 27.9999 16.3626Z" fill="#FD4755"/>
</g>
</g>
<defs>
<clipPath id="clip0_136_391">
<rect width="32" height="32" fill="white" transform="translate(12 12)"/>
</clipPath>
</defs>
</svg>
