<svg width="56" height="56" viewBox="0 0 56 56" fill="none" xmlns="http://www.w3.org/2000/svg">
<circle cx="28" cy="28" r="28" fill="#F9FDE7"/>
<g clip-path="url(#clip0_136_356)">
<path fill-rule="evenodd" clip-rule="evenodd" d="M32.2299 23.9606C30.4789 21.9074 27.3527 21.8599 26.248 23.1843C25.0237 22.8799 24.0304 24.1011 23.7249 25.2183C23.316 26.7141 23.8726 28.3194 24.0691 29.9462C24.1152 30.3288 24.1416 30.7126 24.1307 31.0965C24.0854 32.6903 23.1762 34.2849 21.9457 35.7984C23.8169 36.5784 33.2156 36.572 35.3338 36.1573C34.1684 34.2102 33.9621 32.0095 33.8212 29.9462C33.6591 27.5695 33.5837 25.375 32.2299 23.9606Z" fill="#2C3033"/>
<path fill-rule="evenodd" clip-rule="evenodd" d="M28.6098 43.3151H38.7641V40.8436C38.7641 39.1352 38.0513 38.5697 36.4601 37.9481L32.3798 36.3541L31.1366 35.3676H26.083L24.8398 36.3541L20.7594 37.9481C19.1683 38.5696 18.4554 39.1352 18.4554 40.8436V43.3151H28.6098Z" fill="#4F5D99"/>
<path fill-rule="evenodd" clip-rule="evenodd" d="M32.2711 43.3151H32.913L33.4861 36.7863L32.8652 36.5438L32.2709 43.3151H32.2711Z" fill="#45518A"/>
<path fill-rule="evenodd" clip-rule="evenodd" d="M28.6098 43.3151H32.2709L32.8653 36.5438L32.3798 36.3541L31.1365 35.3677L28.8637 37.9637H28.3558L26.0829 35.3677L24.8397 36.3541L24.3541 36.5438L24.9485 43.3151H28.6098Z" fill="#E7EBF5"/>
<path fill-rule="evenodd" clip-rule="evenodd" d="M28.6836 32.1857H30.7202L30.936 36.9751L28.8637 37.9637H28.3558L26.2834 36.9751L26.4993 32.1857H28.6098H28.6836Z" fill="#EDBB8A"/>
<path fill-rule="evenodd" clip-rule="evenodd" d="M28.6835 32.1857H30.7201L30.9359 36.9751L28.8636 37.9637H28.3557L27.224 37.4239L27.4601 32.1857H28.6097H28.6835Z" fill="#F9C795"/>
<path fill-rule="evenodd" clip-rule="evenodd" d="M28.8637 37.9637L30.4497 40.1069L32.3798 36.3541L31.1365 35.3677L28.8637 37.9637ZM28.3558 37.9637L26.7698 40.1069L24.8397 36.3541L26.083 35.3677L28.3558 37.9637Z" fill="white"/>
<path fill-rule="evenodd" clip-rule="evenodd" d="M25.0025 30.4691C24.9536 29.7914 24.8537 28.8379 24.8537 28.8379C24.7286 28.7233 24.5092 28.5183 24.2655 28.3416C23.871 28.0554 23.345 28.0903 23.1191 28.4544C22.9971 28.6511 23.0821 28.9102 23.1815 29.1621C23.1894 29.1821 23.4231 29.5751 23.6136 29.9777C23.8215 30.4172 23.764 30.6148 24.133 30.8699C24.4364 31.0797 24.8526 30.9362 25.0025 30.4691Z" fill="#F9C795"/>
<path fill-rule="evenodd" clip-rule="evenodd" d="M24.4603 28.7915C24.4366 28.7441 24.4037 28.702 24.3636 28.6674C24.3235 28.6328 24.277 28.6065 24.2267 28.59C24.1764 28.5735 24.1233 28.5672 24.0706 28.5713C24.0178 28.5754 23.9664 28.5899 23.9192 28.6141C23.8721 28.6382 23.8302 28.6714 23.796 28.7117C23.7618 28.7521 23.7359 28.7989 23.7198 28.8493C23.7038 28.8998 23.6979 28.9529 23.7024 29.0056C23.707 29.0584 23.722 29.1097 23.7465 29.1566C23.8518 29.3611 23.9322 29.5353 24.0052 29.7122C24.0781 29.889 24.1424 30.0661 24.2163 30.2781C24.2518 30.3778 24.3253 30.4593 24.4207 30.5051C24.516 30.5508 24.6256 30.5571 24.7256 30.5225C24.8256 30.4879 24.9078 30.4152 24.9545 30.3203C25.0012 30.2254 25.0085 30.1159 24.9749 30.0156C24.8958 29.7883 24.8268 29.5982 24.7484 29.4081C24.67 29.2181 24.5808 29.0255 24.4603 28.7914L24.4603 28.7915Z" fill="#EDB47C"/>
<path fill-rule="evenodd" clip-rule="evenodd" d="M32.7066 29.9462C33.0201 28.507 32.1849 27.5042 31.4429 27.3928C28.7607 26.9903 28.0841 25.517 26.2855 25.2122C26.4404 26.129 25.5699 27.3081 24.2655 28.3415C24.4629 30.551 25.4149 34.0193 27.7536 34.9387C28.1062 35.0773 28.2359 34.9522 28.6098 34.9482C28.9423 34.9482 29.1232 35.0735 29.4659 34.9387C31.2889 34.2221 32.2693 31.9568 32.7066 29.9462V29.9462Z" fill="#F2CB9F"/>
<path fill-rule="evenodd" clip-rule="evenodd" d="M32.7065 29.9462C33.02 28.507 32.1849 27.5042 31.4429 27.3928C28.7606 26.9903 28.0841 25.517 26.2854 25.2122C26.4404 26.129 26.2496 27.3433 24.9451 28.3767C25.1098 30.2194 25.6934 33.2795 27.2733 34.7035C27.4269 34.7944 27.5875 34.8731 27.7535 34.9387C28.1061 35.0773 28.2358 34.9522 28.6096 34.9482C28.9421 34.9482 29.1231 35.0735 29.4658 34.9387C31.2888 34.2221 32.2692 31.9568 32.7064 29.9462L32.7065 29.9462Z" fill="#FDD7AD"/>
<path fill-rule="evenodd" clip-rule="evenodd" d="M28.3558 37.9638L26.7698 40.1069L24.8397 36.3541L26.732 40.5011L28.4673 38.1563H28.7523L30.4875 40.5011L32.3798 36.3541L30.4497 40.1069L28.8637 37.9637L28.3558 37.9638Z" fill="#D6DBE8"/>
<path fill-rule="evenodd" clip-rule="evenodd" d="M24.9483 43.3151H24.3063L23.7333 36.7863L24.3541 36.5438L24.9485 43.3151H24.9483Z" fill="#45518A"/>
<path fill-rule="evenodd" clip-rule="evenodd" d="M39.2727 21.3569L40.4821 23.931L43.304 24.2857L41.2295 26.2314L41.7641 29.0247L39.2727 27.6531L36.7813 29.0247L37.3159 26.2314L35.2415 24.2857L38.0633 23.931L39.2727 21.3569Z" fill="#F9AC00"/>
<path fill-rule="evenodd" clip-rule="evenodd" d="M39.5585 21.9653L40.482 23.931L43.3039 24.2856L41.2295 26.2313L41.6751 28.5598L39.6504 27.4451L39.2727 27.653L37.4862 28.6366L37.987 26.0199L36.032 24.1863L38.6709 23.8546L39.5585 21.9653Z" fill="#FDC72E"/>
<path fill-rule="evenodd" clip-rule="evenodd" d="M18.4566 29.6743C18.4566 30.046 18.1525 30.3502 17.7808 30.3502H15.2922C14.9204 30.3502 14.6163 30.046 14.6163 29.6743V29.3157C14.6163 27.4556 12.6962 26.9331 12.6962 24.4334C12.6962 22.1399 14.6163 20.9932 16.5365 20.9932C18.4567 20.9932 20.3768 22.1399 20.3768 24.4334C20.3768 26.9331 18.4566 27.4556 18.4566 29.3157V29.6743Z" fill="#F9AC00"/>
<path fill-rule="evenodd" clip-rule="evenodd" d="M18.4567 29.6743C18.4567 30.046 18.1525 30.3501 17.7808 30.3501H16.1859C15.8142 30.3501 15.5101 30.046 15.5101 29.6743V29.3157C15.5101 27.4556 13.59 26.9331 13.59 24.4334C13.59 22.3182 15.2232 21.1784 16.9834 21.014C18.7436 21.1784 20.3768 22.3182 20.3768 24.4334C20.3768 26.9331 18.4567 27.4556 18.4567 29.3157L18.4567 29.6743Z" fill="#FDC72E"/>
<path fill-rule="evenodd" clip-rule="evenodd" d="M15.5094 29.7714H17.5635V30.7259C17.5635 31.0103 17.3307 31.2431 17.0463 31.2431H16.0266C15.7421 31.2431 15.5094 31.0104 15.5094 30.7259V29.7714Z" fill="#45518A"/>
<path fill-rule="evenodd" clip-rule="evenodd" d="M16.1292 29.7714H17.5635V30.7259C17.5635 31.0103 17.3307 31.2431 17.0463 31.2431H16.6464C16.362 31.2431 16.1292 31.0104 16.1292 30.7259V29.7714Z" fill="#4F5D99"/>
<path fill-rule="evenodd" clip-rule="evenodd" d="M18.4566 29.6743C18.4566 30.046 18.1525 30.3502 17.7808 30.3502H15.2922C14.9205 30.3502 14.6163 30.046 14.6163 29.6743V29.3157H18.4566V29.6743Z" fill="#6A75AD"/>
<path fill-rule="evenodd" clip-rule="evenodd" d="M18.4566 29.6743C18.4566 30.0457 18.1529 30.3497 17.7816 30.3501H16.1858C15.8141 30.3501 15.51 30.046 15.51 29.6743V29.3157H18.4566L18.4566 29.6743Z" fill="#7986BF"/>
<path fill-rule="evenodd" clip-rule="evenodd" d="M16.2253 29.3156V27.3047C16.2253 27.2789 16.2242 27.2532 16.2244 27.2274C16.0762 27.1667 15.9356 27.0699 15.8079 26.9424C15.5033 26.6382 15.2594 26.1428 15.1665 25.5459C15.1539 25.4643 15.1742 25.3811 15.2229 25.3145C15.2717 25.2479 15.3449 25.2034 15.4265 25.1907C15.5081 25.1781 15.5913 25.1984 15.6579 25.2472C15.7246 25.2959 15.7691 25.3692 15.7817 25.4507C15.8536 25.9125 16.0302 26.2837 16.2473 26.5005C16.2546 26.5079 16.2619 26.515 16.2693 26.522C16.3575 25.814 16.5621 25.3651 16.7733 25.1341C16.9319 24.9607 17.1109 24.8812 17.2811 24.8841C17.4856 24.8876 17.6549 24.9975 17.7568 25.1988C17.8756 25.4334 17.8906 25.8304 17.6954 26.3219C17.5265 26.747 17.3041 27.0208 17.0593 27.1672C16.9933 27.2071 16.9227 27.2389 16.8491 27.2619L16.8478 27.3047V29.3157H16.2252L16.2253 29.3156ZM17.2241 25.5633C17.0938 25.7122 16.9683 26.0076 16.9006 26.4862C16.9764 26.3919 17.0494 26.262 17.1169 26.0923C17.2111 25.8552 17.239 25.677 17.2241 25.5633Z" fill="#FF6600"/>
<path d="M29.9657 19.5548C31.788 18.8063 32.6585 16.7222 31.91 14.8999C31.1615 13.0776 29.0774 12.207 27.2551 12.9556C25.4327 13.7041 24.5622 15.7881 25.3107 17.6105C26.0592 19.4328 28.1433 20.3033 29.9657 19.5548Z" fill="#3FC977"/>
<path fill-rule="evenodd" clip-rule="evenodd" d="M28.9964 12.7058C30.7845 12.8986 32.1768 14.4126 32.1768 16.252C32.1768 18.0914 30.7845 19.6054 28.9964 19.7982C27.2083 19.6054 25.816 18.0914 25.816 16.252C25.816 14.4126 27.2083 12.8986 28.9964 12.7058Z" fill="#4FE88E"/>
<path fill-rule="evenodd" clip-rule="evenodd" d="M26.8396 16.2298C26.8192 16.1943 26.806 16.1552 26.8008 16.1147C26.7955 16.0742 26.7983 16.033 26.809 15.9936C26.8196 15.9541 26.838 15.9172 26.8629 15.8848C26.8878 15.8524 26.9189 15.8253 26.9543 15.8049C26.9898 15.7846 27.0289 15.7714 27.0694 15.7662C27.1099 15.7609 27.1511 15.7637 27.1905 15.7743C27.23 15.785 27.2669 15.8033 27.2993 15.8283C27.3317 15.8532 27.3588 15.8843 27.3792 15.9197L27.927 16.8686L29.8892 14.9065C29.9481 14.8496 30.027 14.8181 30.109 14.8188C30.1909 14.8195 30.2693 14.8524 30.3272 14.9103C30.3852 14.9683 30.418 15.0466 30.4187 15.1286C30.4195 15.2105 30.388 15.2894 30.331 15.3484L28.082 17.5974L28.0811 17.5966C28.0473 17.6304 28.0062 17.6559 27.9609 17.6713C27.9157 17.6866 27.8675 17.6913 27.8201 17.685C27.7728 17.6787 27.7275 17.6616 27.6878 17.635C27.6481 17.6084 27.6151 17.573 27.5913 17.5316L26.8397 16.2298H26.8396Z" fill="white"/>
<path fill-rule="evenodd" clip-rule="evenodd" d="M22.7955 19.7413C22.7137 19.7398 22.6357 19.7062 22.5785 19.6478C22.5213 19.5893 22.4894 19.5106 22.4897 19.4288C22.49 19.347 22.5225 19.2685 22.5802 19.2105C22.6379 19.1525 22.7161 19.1195 22.798 19.1187L24.0849 19.1257C24.2812 19.1265 24.4262 19.3058 24.3892 19.4967L24.1404 20.7593C24.1245 20.8405 24.077 20.9122 24.0084 20.9584C23.9397 21.0046 23.8555 21.0217 23.7742 21.0058C23.693 20.99 23.6213 20.9425 23.5751 20.8738C23.5289 20.8051 23.5118 20.7209 23.5277 20.6397L23.6103 20.2219L21.4656 21.9571C21.401 22.0075 21.3192 22.0306 21.2378 22.0213C21.1563 22.012 21.0818 21.9711 21.0303 21.9074C20.9787 21.8437 20.9542 21.7623 20.9622 21.6807C20.9701 21.5991 21.0097 21.5239 21.0725 21.4713L23.2081 19.7435L22.7956 19.7413H22.7955ZM34.4927 22.37C34.4102 22.3703 34.3309 22.3379 34.2723 22.2797C34.2136 22.2216 34.1805 22.1425 34.1802 22.06C34.1799 21.9774 34.2124 21.8981 34.2705 21.8395C34.3287 21.7809 34.4077 21.7478 34.4903 21.7475L34.9028 21.7452L32.3413 19.6729C32.2784 19.6203 32.2388 19.5451 32.2309 19.4635C32.223 19.3819 32.2475 19.3005 32.299 19.2368C32.3506 19.1731 32.4251 19.1321 32.5065 19.1229C32.5879 19.1136 32.6698 19.1366 32.7343 19.1871L35.305 21.2668L35.2223 20.8491C35.2077 20.7683 35.2255 20.6851 35.2718 20.6173C35.3181 20.5496 35.3892 20.5027 35.4697 20.487C35.5503 20.4713 35.6338 20.4879 35.7021 20.5333C35.7705 20.5787 35.8183 20.6491 35.8351 20.7295L36.0839 21.9921C36.1209 22.1828 35.9758 22.3623 35.7796 22.363L34.4927 22.37H34.4927ZM28.371 42.4179C28.371 42.335 28.404 42.2555 28.4626 42.1969C28.5212 42.1383 28.6006 42.1054 28.6835 42.1054C28.7664 42.1054 28.8459 42.1383 28.9045 42.1969C28.9631 42.2555 28.996 42.335 28.996 42.4179V42.5655C28.996 42.6484 28.9631 42.7279 28.9045 42.7865C28.8459 42.8451 28.7664 42.878 28.6835 42.878C28.6006 42.878 28.5212 42.8451 28.4626 42.7865C28.404 42.7279 28.371 42.6484 28.371 42.5655V42.4179ZM28.371 40.1436C28.371 40.0607 28.404 39.9812 28.4626 39.9226C28.5212 39.864 28.6006 39.8311 28.6835 39.8311C28.7664 39.8311 28.8459 39.864 28.9045 39.9226C28.9631 39.9812 28.996 40.0607 28.996 40.1436V40.2912C28.996 40.3741 28.9631 40.4536 28.9045 40.5122C28.8459 40.5708 28.7664 40.6037 28.6835 40.6037C28.6006 40.6037 28.5212 40.5708 28.4626 40.5122C28.404 40.4536 28.371 40.3741 28.371 40.2912V40.1436Z" fill="#2C3033"/>
</g>
<defs>
<clipPath id="clip0_136_356">
<rect width="32" height="32" fill="white" transform="translate(12 12)"/>
</clipPath>
</defs>
</svg>
