<svg width="56" height="56" viewBox="0 0 56 56" fill="none" xmlns="http://www.w3.org/2000/svg">
<circle cx="28" cy="28" r="28" fill="#F9FDE7"/>
<path fill-rule="evenodd" clip-rule="evenodd" d="M39.0436 35.3192V28.6134H35.5086L31.1216 27.9602C30.4356 27.8581 29.8079 28.0198 29.2568 28.4408L27.9796 29.4164L23.5491 32.8007L25.5389 35.1249L34.4303 34.3921L36.2283 35.6861C36.3378 35.7647 36.4276 35.8676 36.4907 35.9867L36.9808 35.6375C37.2843 35.4214 37.6043 35.3191 37.9768 35.3191H39.0436V35.3192Z" fill="#E0B375"/>
<path fill-rule="evenodd" clip-rule="evenodd" d="M39.0437 34.1204V28.6134H35.5087L31.1217 27.9602C30.4357 27.8581 29.8081 28.0199 29.2569 28.4409L27.9797 29.4164L24.1697 32.3267L25.539 33.9262L34.3082 35.5807C34.3011 35.7197 35.5462 35.3014 35.6076 35.4171L35.9732 35.1566L36.9809 34.4389C37.2844 34.2227 37.6044 34.1204 37.9769 34.1204H39.0437Z" fill="#EDC082"/>
<path fill-rule="evenodd" clip-rule="evenodd" d="M31.2516 31.9403L34.4304 34.3922L36.2284 35.6862C37.2403 36.4144 35.7244 38.3881 34.8285 37.7434C35.9161 38.5264 34.4014 40.5005 33.4289 39.8005L32.9345 39.4448C33.9279 40.1597 32.4749 42.1785 31.4817 41.4637L31.0542 41.156C32.0474 41.8711 30.5947 43.8897 29.6012 43.1749L27.8032 41.881L19.0215 35.6368C18.7183 35.4212 18.3987 35.3192 18.0267 35.3192H16.9563V28.6134H20.4913L24.8567 27.9649C25.5467 27.8624 26.1782 28.027 26.7305 28.4532L27.9792 29.417L25.8694 31.0286C24.7041 31.9187 26.5131 34.2872 27.6786 33.397L28.8719 32.4855L29.5907 31.9365C30.0884 31.5563 30.756 31.5579 31.2519 31.9404L31.2516 31.9403Z" fill="#F0CD9C"/>
<path fill-rule="evenodd" clip-rule="evenodd" d="M31.2517 31.9403L34.4304 34.3922L36.2284 35.6862C37.2404 36.4144 35.7244 38.3881 34.8285 37.7434C35.9161 38.5264 34.4015 40.5005 33.4289 39.8005L32.9345 39.4448C33.9279 40.1597 32.4749 42.1785 31.4817 41.4637L31.0542 41.156C31.1298 41.2103 31.2087 41.3007 31.2877 41.4171C31.7498 42.2617 30.4914 43.8153 29.6012 43.1749L27.8032 41.881L23.4207 38.7648L21.4781 37.5388L21.0519 35.8423L19.0215 34.438C18.7156 34.2264 18.3986 34.1204 18.0267 34.1204H16.9563V28.6134H20.4913L24.8567 27.9649C25.5467 27.8624 26.1782 28.027 26.7305 28.4532L27.1986 28.8145L27.2009 28.8162L27.9792 29.417L25.8694 31.0286C25.7768 31.0993 25.7031 31.1794 25.6463 31.2664C25.6365 31.2814 25.627 31.2967 25.6182 31.3121C25.6141 31.3193 25.6105 31.3267 25.6066 31.334C25.6014 31.3438 25.596 31.3535 25.5912 31.3635C25.5872 31.3717 25.5835 31.3801 25.5798 31.3884C25.5757 31.3976 25.5714 31.4067 25.5676 31.416C25.564 31.4248 25.5607 31.4338 25.5574 31.4427C25.554 31.4517 25.5505 31.4607 25.5474 31.4699C25.5443 31.479 25.5415 31.4881 25.5387 31.4972C25.5359 31.5065 25.533 31.5157 25.5305 31.525C25.5229 31.5529 25.5165 31.5811 25.5112 31.6095C25.5095 31.6189 25.5079 31.6284 25.5065 31.6379C25.5034 31.6571 25.501 31.6763 25.4992 31.6956C25.4982 31.7055 25.4973 31.7153 25.4965 31.7252C25.4959 31.7348 25.4954 31.7444 25.495 31.754C25.4945 31.7639 25.494 31.7738 25.4938 31.7837C25.4936 31.7938 25.4937 31.804 25.4937 31.8142C25.4937 31.8238 25.4937 31.8334 25.4939 31.8431C25.4942 31.8532 25.4949 31.8635 25.4954 31.8737C25.4959 31.8835 25.4962 31.8933 25.4969 31.9032C25.4977 31.9128 25.4987 31.9224 25.4997 31.932C25.5015 31.9512 25.5038 31.9705 25.5065 31.9898C25.508 32.0005 25.5093 32.0112 25.511 32.0219C25.5126 32.0317 25.5145 32.0415 25.5164 32.0512C25.5183 32.0617 25.52 32.072 25.5222 32.0825C25.5242 32.0927 25.5266 32.1028 25.5289 32.1129C25.5312 32.1231 25.5335 32.1332 25.5359 32.1434C25.5384 32.1535 25.5412 32.1637 25.5439 32.1738C25.5466 32.1841 25.5494 32.1943 25.5523 32.2047C25.5552 32.2146 25.5582 32.2245 25.5613 32.2345C25.5645 32.2448 25.5677 32.2551 25.571 32.2653C25.5879 32.3164 25.6069 32.3668 25.6279 32.4163C25.6322 32.4264 25.6367 32.4365 25.6412 32.4466C25.6455 32.4563 25.6499 32.4661 25.6544 32.4758C25.6592 32.486 25.6641 32.4962 25.669 32.5063C25.6737 32.516 25.6784 32.5256 25.6832 32.5352C25.6885 32.5457 25.694 32.5562 25.6995 32.5667C25.7042 32.5756 25.7088 32.5845 25.7136 32.5934C25.7201 32.6053 25.7269 32.6172 25.7336 32.629C25.7378 32.6364 25.7419 32.6438 25.7462 32.6512C25.7572 32.67 25.7685 32.6887 25.7801 32.7073C25.7834 32.7126 25.7869 32.7178 25.7903 32.723C25.799 32.7367 25.8077 32.7502 25.8166 32.7637C25.8219 32.7715 25.8273 32.7792 25.8326 32.7869C25.8399 32.7975 25.8472 32.8082 25.8547 32.8188C25.8609 32.8274 25.8672 32.8359 25.8734 32.8445C25.8803 32.8538 25.8871 32.8632 25.8942 32.8725C25.9007 32.8811 25.9074 32.8896 25.914 32.8981C25.9213 32.9074 25.9285 32.9167 25.9359 32.9259C25.9425 32.9342 25.9493 32.9423 25.956 32.9504C25.9703 32.9676 25.9848 32.9846 25.9995 33.0013C26.0074 33.0103 26.0153 33.0191 26.0232 33.0279L26.0447 33.0512C26.0528 33.0599 26.061 33.0685 26.0693 33.0771C26.0765 33.0846 26.0837 33.092 26.091 33.0994C26.0993 33.1077 26.1076 33.1158 26.116 33.124C26.132 33.1396 26.1483 33.1549 26.1648 33.17C26.1724 33.1769 26.1799 33.1838 26.1875 33.1907C26.1965 33.1987 26.2058 33.2066 26.215 33.2144C26.2225 33.2208 26.2299 33.2273 26.2375 33.2337C26.248 33.2424 26.2587 33.2509 26.2694 33.2594C26.2757 33.2644 26.2819 33.2696 26.2882 33.2745C26.3052 33.2877 26.3223 33.3005 26.3395 33.3131C26.3444 33.3166 26.3494 33.3199 26.3542 33.3233C26.3668 33.3323 26.3795 33.3412 26.3922 33.3498C26.3992 33.3546 26.4064 33.359 26.4135 33.3637C26.4243 33.3707 26.4351 33.3778 26.446 33.3845C26.4536 33.3893 26.4613 33.3938 26.4689 33.3983C26.4794 33.4047 26.4898 33.4109 26.5004 33.4169C26.5084 33.4215 26.5165 33.4258 26.5246 33.4303C26.5431 33.4405 26.5619 33.4503 26.5808 33.4597C26.5907 33.4646 26.6007 33.4695 26.6108 33.4742C26.6194 33.4782 26.6281 33.4821 26.6367 33.486C26.6656 33.4987 26.6948 33.5106 26.7244 33.5215C26.7329 33.5246 26.7415 33.5277 26.75 33.5307C26.7606 33.5343 26.7713 33.5377 26.7819 33.541C26.7902 33.5436 26.7985 33.5462 26.8069 33.5487C26.8182 33.552 26.8295 33.5549 26.8409 33.5578C26.8487 33.5599 26.8565 33.562 26.8644 33.5639C26.8766 33.5668 26.8889 33.5693 26.9012 33.5718C26.9081 33.5732 26.9149 33.5748 26.9218 33.5761C26.9377 33.579 26.9535 33.5814 26.9694 33.5836C26.9728 33.584 26.9762 33.5847 26.9796 33.5852C26.9989 33.5877 27.0182 33.5895 27.0375 33.5909C27.0427 33.5913 27.0479 33.5913 27.053 33.5917C27.067 33.5925 27.081 33.5932 27.095 33.5933C27.1024 33.5935 27.1099 33.5932 27.1173 33.5932C27.1291 33.593 27.1409 33.593 27.1527 33.5924C27.1607 33.592 27.1687 33.5913 27.1766 33.5908C27.1878 33.59 27.199 33.5892 27.2101 33.5879C27.2184 33.587 27.2267 33.5858 27.235 33.5847C27.2542 33.5822 27.2733 33.579 27.2923 33.5751C27.3114 33.5712 27.3304 33.5667 27.3493 33.5617C27.3683 33.5565 27.3871 33.5507 27.4057 33.5444C27.4246 33.5377 27.4433 33.5306 27.4619 33.5231C27.4725 33.5186 27.4832 33.5137 27.4939 33.5087C27.5016 33.5052 27.5094 33.5017 27.517 33.4978C27.5281 33.4923 27.5391 33.4863 27.5501 33.4803C27.5574 33.4763 27.5646 33.4725 27.5718 33.4683C27.5835 33.4616 27.5951 33.4541 27.6067 33.4467C27.613 33.4427 27.6194 33.4389 27.6257 33.4347C27.6435 33.423 27.6611 33.4103 27.6785 33.3969L28.8719 32.4854L29.5906 31.9364C30.0883 31.5563 30.7559 31.5578 31.2517 31.9403H31.2517ZM25.78 32.7073C25.7834 32.7127 25.7869 32.7178 25.7902 32.7231L25.78 32.7073Z" fill="#F7D8AC"/>
<path fill-rule="evenodd" clip-rule="evenodd" d="M34.8285 37.7434C35.2131 38.0204 35.272 38.4462 35.1448 38.8501L30.7125 35.6127C30.6387 35.5567 30.5898 35.4741 30.5763 35.3825C30.5628 35.2908 30.5857 35.1976 30.6403 35.1227C30.6948 35.0478 30.7765 34.9973 30.8678 34.9821C30.9592 34.9668 31.0529 34.988 31.1288 35.0411L34.8285 37.7434ZM32.9358 39.4459L30.3713 37.5727L29.346 36.8238C29.2701 36.7707 29.1764 36.7496 29.0851 36.7648C28.9937 36.7801 28.912 36.8306 28.8575 36.9054C28.803 36.9803 28.78 37.0736 28.7935 37.1652C28.807 37.2568 28.856 37.3395 28.9298 37.3954L29.955 38.1443L33.1988 40.5137C33.3308 40.1134 33.2856 39.6977 32.9344 39.445L32.9358 39.446L32.9358 39.4459ZM31.0551 41.1567L27.9535 38.8912C27.8777 38.836 27.783 38.8132 27.6904 38.8277C27.5978 38.8423 27.5148 38.8931 27.4596 38.9689C27.4044 39.0447 27.3816 39.1393 27.3961 39.2319C27.4107 39.3245 27.4615 39.4076 27.5373 39.4627L31.3186 42.2247C31.4505 41.8245 31.4053 41.4088 31.0542 41.156L31.0551 41.1567H31.0551Z" fill="#F0CD9C"/>
<path fill-rule="evenodd" clip-rule="evenodd" d="M20.4416 38.5752L21.4764 37.5403C22.3419 36.6748 20.5828 34.9157 19.7174 35.7815L18.6826 36.8164C17.7934 37.7055 19.578 39.4385 20.4416 38.5752L20.4416 38.5752Z" fill="#EDC082"/>
<path fill-rule="evenodd" clip-rule="evenodd" d="M22.1079 40.4267L24.3153 38.2195C25.1809 37.3542 23.4217 35.5948 22.5563 36.4606L20.3492 38.668C19.4838 39.5334 21.2425 41.2921 22.1078 40.4267H22.1079Z" fill="#EDC082"/>
<path fill-rule="evenodd" clip-rule="evenodd" d="M23.6415 36.3652C23.2714 36.1767 22.8604 36.1579 22.558 36.4589L20.349 38.668C20.0465 38.9706 20.0649 39.3823 20.2536 39.753L22.8634 37.1432L23.6415 36.3652V36.3652Z" fill="#E0B375"/>
<path fill-rule="evenodd" clip-rule="evenodd" d="M24.2971 41.7551L26.0739 39.9783C26.9393 39.113 25.1806 37.354 24.3151 38.2195L22.5384 39.9963C21.673 40.8616 23.4319 42.6203 24.2971 41.7551Z" fill="#EDC082"/>
<path fill-rule="evenodd" clip-rule="evenodd" d="M26.4284 43.1414L27.4632 42.1066C28.3287 41.2411 26.5697 39.4821 25.7042 40.3476L24.6694 41.3826C23.8042 42.2482 25.5631 44.0071 26.4284 43.1414Z" fill="#EDC082"/>
<path d="M13.4375 27.1992H16.9562V36.7334H13.4375V27.1992Z" fill="#83DEFF"/>
<path d="M13.4375 35.3192H16.9562V36.7334H13.4375V35.3192Z" fill="#57CFFA"/>
<path d="M39.0437 27.1992H42.5624V36.7334H39.0437V27.1992Z" fill="#FD7A6E"/>
<path d="M39.0437 35.3192H42.5624V36.7334H39.0437V35.3192Z" fill="#FB695B"/>
<path fill-rule="evenodd" clip-rule="evenodd" d="M25.7052 40.3467L25.3098 40.742L24.6694 41.3825C24.366 41.686 24.3855 42.0993 24.5759 42.4709L26.7047 40.342L26.7929 40.2538C26.4217 40.0636 26.0087 40.0439 25.7051 40.3466L25.7052 40.3467ZM22.443 41.0812L24.6666 38.8577L25.4002 38.1241C25.0295 37.9353 24.6177 37.9168 24.315 38.2195L23.8441 38.6904L22.5365 39.9982C22.2359 40.3006 22.2545 40.7114 22.4429 41.0813L22.443 41.0812ZM19.7175 35.7815L19.0354 36.4635L18.6818 36.8172C18.3709 37.129 18.3883 37.5442 18.579 37.9149L20.8062 35.6878C20.4345 35.4973 20.021 35.4778 19.7175 35.7815ZM31.816 31.4175L35.3729 34.1414L36.7586 35.1387L36.3513 35.4288L36.1097 35.6009L34.8085 34.6643L31.2517 31.9404C30.7545 31.5597 30.0882 31.5564 29.5905 31.9365L29.5065 32.0007L30.155 31.4135C30.6192 30.9933 31.3189 31.0367 31.816 31.4175Z" fill="#E0B375"/>
<path fill-rule="evenodd" clip-rule="evenodd" d="M27.9999 27.0311C25.956 26.4834 21.7622 24.8273 21.7622 21.2897V14.2116C23.6151 13.2003 25.7403 12.6253 27.9999 12.6253C30.2595 12.6253 32.3846 13.2003 34.2376 14.2116V21.2897C34.2376 24.8273 30.0438 26.4834 27.9999 27.0311Z" fill="#4677D5"/>
<path fill-rule="evenodd" clip-rule="evenodd" d="M23.0513 13.5976C24.5772 12.971 26.2481 12.6253 27.9999 12.6253C30.2595 12.6253 32.3846 13.2003 34.2376 14.2116V21.2897C34.2376 24.8273 30.0438 26.4834 27.9999 27.0311C25.8563 26.2361 23.0513 24.1963 23.0513 21.2897V13.5976Z" fill="#5C85DA"/>
<path d="M31.2342 22.9406C33.0218 21.153 33.0218 18.2548 31.2342 16.4672C29.4467 14.6796 26.5484 14.6796 24.7609 16.4672C22.9733 18.2548 22.9733 21.153 24.7609 22.9406C26.5484 24.7282 29.4467 24.7282 31.2342 22.9406Z" fill="#FAD51B"/>
<path fill-rule="evenodd" clip-rule="evenodd" d="M28.5157 15.1548C30.8009 15.411 32.5774 17.3494 32.5774 19.7031C32.5774 22.0568 30.8009 23.9952 28.5157 24.2514C26.2304 23.9952 24.4539 22.0568 24.4539 19.7031C24.4539 17.3494 26.2304 15.411 28.5157 15.1548Z" fill="#FFE54E"/>
<path fill-rule="evenodd" clip-rule="evenodd" d="M25.5476 19.8954C25.3232 19.5892 25.3894 19.159 25.6956 18.9346C26.0018 18.7101 26.432 18.7764 26.6564 19.0826L27.4722 20.1922L29.3435 17.647C29.568 17.3408 29.9982 17.2746 30.3043 17.499C30.6105 17.7234 30.6768 18.1536 30.4523 18.4598L28.0354 21.7471C27.9923 21.8087 27.9393 21.8628 27.8785 21.9071C27.5723 22.1316 27.1422 22.0653 26.9177 21.7591L25.5475 19.8954H25.5476Z" fill="#4AC994"/>
</svg>
