<svg width="142" height="40" viewBox="0 0 142 40" fill="none" xmlns="http://www.w3.org/2000/svg">
<path d="M7.84434 0.138088C4.94229 1.33808 1.76988 4.78083 0.76299 9.07598C-0.514246 14.5325 4.7878 16.8139 5.21263 16.0415C5.7147 15.1504 4.28298 14.8415 3.97401 12.0167C3.58781 8.38082 5.28987 4.31738 7.41676 2.49946C7.80297 2.15187 7.80296 2.61532 7.80296 3.46773C7.80296 4.97669 7.72572 18.7118 7.72572 21.5753C7.72572 25.4456 7.57124 26.6814 7.26228 27.8814C6.95331 29.1201 6.48711 29.9311 6.87607 30.2428C7.26228 30.5904 8.96434 29.7407 9.93261 28.3863C11.094 26.7614 11.5188 24.789 11.5961 22.6208C11.6733 20.0277 11.6733 15.967 11.6733 13.6056C11.6733 11.4787 11.7119 5.21117 11.6347 1.41808C11.5988 0.604293 9.04434 -0.363979 7.84434 0.138088ZM110.489 18.2456C110.412 20.2566 109.949 21.8428 109.405 22.927C108.321 25.0925 106.117 25.7518 105.187 22.6566C104.685 20.9546 104.647 18.1684 105.033 15.8098C105.419 13.4098 106.465 11.5918 108.205 11.7849C109.872 11.978 110.683 14.1849 110.489 18.2456ZM81.5489 30.7421C81.5103 34.069 81.0082 37.0097 79.8855 37.8621C78.2993 39.0621 76.1338 38.1711 76.5586 35.7352C76.9448 33.5697 78.8013 31.3628 81.5489 28.6538C81.5489 28.6925 81.5489 29.3104 81.5489 30.7421ZM81.1241 18.2456C81.0082 20.0635 80.5448 21.9201 80.0399 22.9656C78.9558 25.1311 76.7131 25.7904 75.822 22.6952C75.2041 20.5684 75.3586 17.8594 75.6675 16.1187C76.0924 13.876 77.0606 11.8236 78.84 11.8236C80.5034 11.7849 81.3558 13.6801 81.1241 18.2456ZM64.371 18.207C64.2552 20.1408 63.869 21.7656 63.2869 22.9656C62.2028 25.0925 59.9986 25.7904 59.069 22.6952C58.3738 20.4911 58.6055 17.4346 58.9145 15.8098C59.3393 13.3711 60.4235 11.6691 62.0869 11.8236C63.7531 11.978 64.5641 14.1849 64.371 18.207ZM141.132 20.4911C140.707 20.4911 140.514 20.9159 140.357 21.6525C139.816 24.1683 139.234 24.7477 138.5 24.7477C137.687 24.7477 136.914 23.509 136.721 20.9959C136.567 19.0235 136.605 15.3849 136.798 11.7877C136.837 11.0539 136.644 10.3174 134.633 9.58357C133.78 9.2746 132.545 8.8084 131.924 10.3174C130.183 14.5353 129.485 17.9008 129.331 19.2553C129.331 19.3325 129.254 19.3325 129.215 19.178C129.099 18.0939 128.867 16.1215 128.867 11.9422C128.867 11.1284 128.674 10.4332 127.783 9.85391C127.204 9.4677 125.422 8.84702 124.804 9.62219C124.263 10.2401 123.604 11.9449 122.947 13.9946C122.407 15.6194 122.018 16.7422 122.018 16.7422C122.018 16.7422 122.018 12.3311 122.018 10.6291C122.018 10.0112 121.593 9.77667 121.438 9.73805C120.859 9.58357 119.698 9.2746 119.196 9.2746C118.578 9.2746 118.42 9.62219 118.42 10.127C118.42 10.2043 118.343 15.9698 118.343 19.9918C118.343 20.1849 118.343 20.3394 118.343 20.5711C117.996 22.4277 116.912 24.9435 115.712 24.9435C114.512 24.9435 113.971 23.898 113.971 19.1008C113.971 16.3146 114.048 15.076 114.087 13.0649C114.125 11.9036 114.164 11.0153 114.164 10.7836C114.164 10.1656 113.08 9.85391 112.578 9.73805C112.076 9.62219 111.648 9.58357 111.301 9.58357C110.798 9.62219 110.487 9.93115 110.487 10.3587C110.487 10.5905 110.487 11.0539 110.487 11.0539C109.869 10.0856 108.862 9.39047 108.205 9.19736C106.426 8.65668 104.531 9.12012 103.099 11.1311C101.976 12.7174 101.281 14.4967 101.011 17.0511C100.818 18.9077 100.895 20.8028 101.243 22.4277C100.818 24.2456 100.043 24.9821 99.193 24.9821C97.9544 24.9821 97.0661 22.9711 97.1819 19.487C97.2592 17.2056 97.7226 15.578 98.2275 13.258C98.4592 12.2511 98.2661 11.7491 97.8413 11.247C97.4551 10.7836 96.6026 10.5518 95.364 10.8608C94.473 11.0539 93.2371 11.2856 92.1144 11.4401C92.1144 11.4401 92.1916 11.1698 92.2302 10.6649C92.5392 8.11047 89.753 8.34219 88.8647 9.15598C88.3241 9.65805 87.9737 10.2015 87.8578 11.2443C87.6261 12.8691 88.9806 13.6442 88.9806 13.6442C88.5558 15.6553 87.4716 18.2484 86.3489 20.1435C85.7696 21.1504 85.3034 21.9228 84.7241 22.698C84.7241 22.389 84.7241 22.1187 84.7241 21.807C84.7241 17.5891 84.7627 14.3008 84.8013 13.1008C84.8399 11.9394 84.8786 11.0512 84.8786 10.858C84.8786 10.3946 84.6082 10.2401 84.0648 10.0056C83.5627 9.81253 82.9806 9.69667 82.4013 9.61943C81.6262 9.54219 81.2013 9.96702 81.2013 10.4332C81.2013 10.5105 81.2013 11.0898 81.2013 11.0898C80.5834 10.1215 79.5765 9.42633 78.92 9.23322C77.1406 8.69254 75.2455 9.15598 73.8138 11.167C72.691 12.7532 71.9572 14.9573 71.7255 17.0484C71.5324 19.0208 71.571 20.6842 71.8414 22.1159C71.571 23.5477 70.7186 25.018 69.7917 25.018C68.5917 25.018 67.9352 23.9725 67.9352 19.1753C67.9352 16.3891 68.0124 15.1504 68.051 13.1394C68.0896 11.978 68.1283 11.0898 68.1283 10.858C68.1283 10.2401 67.0441 9.92839 66.5421 9.81253C66.0014 9.69667 65.5738 9.65805 65.2262 9.65805C64.7628 9.69667 64.451 10.1215 64.451 10.3918V11.087C63.8331 10.1187 62.8262 9.42357 62.1697 9.23047C60.3904 8.68978 58.4952 9.19184 57.0635 11.1643C56.1338 12.4415 55.4 13.8732 54.9752 17.0456C54.8593 17.9753 54.8207 18.8249 54.8207 19.6001C54.4345 21.8815 52.8097 24.4745 51.4552 24.4745C50.68 24.4745 49.9076 22.9656 49.9076 19.7159C49.9076 15.3822 50.178 9.26909 50.2166 8.65116C50.2166 8.65116 51.9187 8.61254 52.2276 8.61254C53.08 8.61254 53.8525 8.61254 54.9752 8.57392C55.5545 8.5353 56.098 6.52427 55.5159 6.25117C55.2456 6.1353 53.389 6.05806 52.6525 6.01944C52.0345 6.01944 50.2911 5.86496 50.2911 5.86496C50.2911 5.86496 50.4456 1.80153 50.4842 1.33808C50.5228 0.990496 50.0594 0.797392 49.789 0.68153C49.1325 0.411186 48.5504 0.295327 47.8939 0.140845C46.9256 -0.0522579 46.5008 0.140844 46.4235 0.954634C46.3077 2.15463 46.2304 5.71324 46.2304 5.71324C45.5352 5.71324 43.1353 5.55876 42.4401 5.55876C41.7835 5.55876 41.0856 8.34496 41.9766 8.38358C43.0221 8.4222 44.8015 8.46082 46.0014 8.49944C46.0014 8.49944 45.9628 14.7284 45.9628 16.6622C45.9628 16.8553 45.9628 17.0484 45.9628 17.2415C45.3063 20.6456 42.9835 22.5021 42.9835 22.5021C43.4856 20.2594 42.4815 18.5546 40.6608 17.1256C40.0042 16.5849 38.6497 15.578 37.1794 14.4939C37.1794 14.4939 38.0318 13.6415 38.8042 11.9394C39.3449 10.7394 39.3835 9.34633 38.0291 9.03736C35.8249 8.5353 34.0429 10.1601 33.5022 11.8622C33.0774 13.178 33.3091 14.1849 34.1201 15.1891C34.1974 15.2663 34.236 15.3435 34.3132 15.4208C33.8111 16.3891 33.1518 17.6635 32.5725 18.6318C30.9863 21.3794 29.7863 23.5835 28.8594 23.5835C28.1257 23.5835 28.1257 21.3794 28.1257 19.2884C28.1257 17.5091 28.2415 14.8001 28.3574 12.0139C28.396 11.0843 27.9325 10.5822 27.1574 10.0801C26.6939 9.80977 25.687 9.22771 25.1077 9.22771C24.2553 9.22771 21.7422 9.34357 19.3809 16.1932C19.0719 17.0456 18.4898 18.6318 18.4898 18.6318L18.5284 10.3918C18.5284 10.1987 18.4126 10.0056 18.1809 9.88977C17.7947 9.65805 16.7105 9.23322 15.7809 9.23322C15.3174 9.23322 15.1243 9.42633 15.1243 9.85115L15.0471 22.7339C15.0471 23.7021 15.0857 24.8608 15.1629 25.3656C15.2402 25.8676 15.4333 26.2566 15.6264 26.527C15.8195 26.7587 16.0512 26.9518 16.4016 27.029C16.7491 27.1063 18.6057 27.338 18.7243 26.6428C18.8402 25.7904 18.8402 24.8635 19.8471 21.3821C21.3946 15.9642 23.367 13.3353 24.3353 12.4056C24.4898 12.2511 24.6829 12.2511 24.6829 12.4829C24.6443 13.6829 24.4898 16.6235 24.4126 19.1366C24.1422 25.8677 25.3808 27.1063 27.1215 27.1063C28.476 27.1063 30.3325 25.7904 32.3822 22.4249C33.6594 20.3366 34.8594 18.2842 35.7477 16.7753C36.3656 17.3546 37.0635 17.9366 37.7201 18.5932C39.3063 20.1022 39.847 21.5339 39.4994 22.927C39.2291 23.9725 38.2222 25.0539 36.4429 24.0111C35.9408 23.7021 35.7091 23.4704 35.1656 23.1201C34.8953 22.927 34.4705 22.8884 34.1974 23.0815C33.5408 23.5835 33.1518 24.2428 32.9201 25.0152C32.727 25.7904 33.4608 26.1766 34.2746 26.5628C34.9698 26.8718 36.4401 27.1421 37.4084 27.1807C41.0828 27.2966 44.0235 25.4014 46.0759 20.4884C46.4235 24.7063 48.0097 27.1035 50.7187 27.1035C52.5366 27.1035 54.3545 24.7421 55.1683 22.4608C55.4 23.3904 55.7476 24.2401 56.1752 24.8994C58.2635 28.2263 62.3269 27.4925 64.3766 24.6677C64.9945 23.8152 65.1103 23.4677 65.1103 23.4677C65.4193 26.138 67.549 27.0649 68.7848 27.0649C70.1779 27.0649 71.571 26.4083 72.5751 24.1628C72.691 24.3945 72.8069 24.6263 72.9614 24.858C75.0496 28.1849 79.1131 27.4511 81.1627 24.6263C81.2399 24.5104 81.3558 24.3559 81.433 24.2787L81.5103 26.0194C81.5103 26.0194 80.3489 27.1035 79.6151 27.7601C76.4813 30.6621 74.0813 32.8276 73.8882 35.3821C73.6565 38.6317 76.2882 39.8317 78.2993 39.9862C80.4262 40.1407 82.2468 38.9793 83.3282 37.3545C84.2965 35.9228 84.953 32.8276 84.9144 29.7325C84.9144 28.4938 84.8758 26.9463 84.8372 25.2828C85.9599 24.0056 87.1985 22.3808 88.3185 20.4856C89.5571 18.436 90.9116 15.6498 91.6068 13.4815C91.6068 13.4815 92.7682 13.4815 94.0068 13.4042C94.393 13.3656 94.5089 13.4429 94.4316 13.7518C94.3544 14.0994 92.8454 19.8263 94.1999 23.6166C95.1295 26.2097 97.2178 27.0594 98.4564 27.0594C99.8881 27.0594 101.281 25.9752 102.015 24.3504C102.092 24.5435 102.208 24.698 102.285 24.8525C104.374 28.1794 108.437 27.4456 110.487 24.6208C110.95 24.0028 111.221 23.4208 111.221 23.4208C111.645 26.1683 113.814 27.018 115.011 27.018C116.288 27.018 117.488 26.4773 118.492 24.1545C118.531 25.1614 118.608 26.0111 118.685 26.2814C118.763 26.4359 119.11 26.629 119.38 26.7449C120.542 27.1697 121.742 26.9766 122.167 26.8994C122.476 26.8221 122.707 26.5904 122.746 25.9697C122.823 24.3063 122.785 21.5201 123.287 19.4318C124.139 15.9504 124.912 14.596 125.298 13.9367C125.491 13.5504 125.761 13.5118 125.761 13.898C125.761 14.7118 125.8 17.0704 126.147 20.2042C126.379 22.527 126.727 23.9173 126.961 24.3449C127.656 25.5835 128.547 25.6608 129.243 25.6608C129.706 25.6608 130.636 25.5449 130.558 24.7311C130.52 24.3449 130.597 21.9449 131.411 18.5408C131.951 16.298 132.881 14.2842 133.19 13.5505C133.306 13.2801 133.383 13.5118 133.383 13.5505C133.306 15.098 133.151 20.127 133.769 22.9132C134.622 26.6649 137.096 27.0539 137.949 27.0539C139.767 27.0539 141.276 25.6608 141.778 21.9863C141.866 21.1477 141.711 20.4911 141.132 20.4911Z" fill="#374151"/>
</svg>
