<svg width="509" height="787" viewBox="0 0 509 787" fill="none" xmlns="http://www.w3.org/2000/svg">
<path d="M99.5302 -13V94.2014C99.5302 102.298 104.694 108.861 111.065 108.861H192.526C198.896 108.861 204.06 115.425 204.06 123.521V227.058C204.06 235.154 209.224 241.718 215.595 241.718H297.056C303.426 241.718 308.59 248.281 308.59 256.378V359.914C308.59 368.011 313.755 374.574 320.125 374.574H401.586C407.957 374.574 413.121 381.138 413.121 389.234V492.771C413.121 500.867 418.285 507.431 424.655 507.431H509M-5 -13V94.2014C-5 102.298 0.164109 108.861 6.53436 108.861H87.9958C94.366 108.861 99.5302 115.425 99.5302 123.521V227.058C99.5302 235.154 104.694 241.718 111.065 241.718H192.526C198.896 241.718 204.06 248.281 204.06 256.378V359.914C204.06 368.011 198.896 374.574 192.526 374.574H111.065C104.694 374.574 99.5302 368.011 99.5302 359.914V254.545L99.4292 253.679C98.6553 247.039 94.2208 242.081 88.9404 241.952L79.345 241.718H6.53436C0.16411 241.718 -5 248.281 -5 256.378V359.914C-5 368.011 0.16411 374.574 6.53436 374.574H88.7167L91.4548 374.806C95.9991 375.191 99.5302 379.988 99.5302 385.777V397.022M99.5302 385.569V492.771C99.5302 500.867 104.694 507.431 111.065 507.431H192.526C198.896 507.431 204.06 513.994 204.06 522.091V625.627C204.06 633.724 209.224 640.287 215.595 640.287H297.056C303.426 640.287 308.59 646.851 308.59 654.947V758.484C308.59 766.58 313.755 773.144 320.125 773.144H401.586C407.957 773.144 413.121 779.707 413.121 787.804V891.34C413.121 899.436 418.285 906 424.655 906H509" stroke="url(#paint0_linear_235_873)" stroke-opacity="0.5" stroke-width="2"/>
<defs>
<linearGradient id="paint0_linear_235_873" x1="-5" y1="-13" x2="647.942" y2="622.712" gradientUnits="userSpaceOnUse">
<stop offset="0.0819437" stop-color="#F7F7F7"/>
<stop offset="0.208333" stop-color="#12C2E9"/>
<stop offset="0.526042" stop-color="#C471ED"/>
<stop offset="0.9375" stop-color="#F64F59"/>
</linearGradient>
</defs>
</svg>
