<svg width="36" height="36" viewBox="0 0 36 36" fill="none" xmlns="http://www.w3.org/2000/svg">
<path d="M33.333 0.00268436H2.65648C1.20665 -0.0136774 0.0176944 1.1477 0 2.59755V33.4019C0.0170886 34.8525 1.20594 36.015 2.65648 35.9998H33.333C34.7864 36.0178 35.9799 34.8554 36 33.4019V2.59532C35.9793 1.14261 34.7857 -0.0186978 33.333 0.000228077" fill="#0A66C2"/>
<path d="M25.4262 30.718H30.7602L30.7625 21.2943C30.7625 16.668 29.7657 13.1119 24.3594 13.1119C22.2926 13.0351 20.3511 14.1014 19.307 15.8867H19.2353V13.5392H14.1146V30.7175H19.4487V22.2194C19.4487 19.9785 19.8737 17.8082 22.6519 17.8082C25.3906 17.8082 25.4262 20.3725 25.4262 22.3645V30.718Z" fill="white"/>
<path d="M5 8.09605C5.00031 9.80565 6.38643 11.1913 8.09599 11.191C8.91694 11.1908 9.70422 10.8646 10.2846 10.284C10.865 9.70333 11.191 8.91592 11.1909 8.09494C11.1906 6.38535 9.80443 4.99969 8.09487 5C6.38532 5.00031 4.99969 6.38646 5 8.09605Z" fill="white"/>
<path d="M5.42339 30.718H10.763V13.5392H5.42339V30.718Z" fill="white"/>
</svg>
