<svg width="129" height="48" viewBox="0 0 129 48" fill="none" xmlns="http://www.w3.org/2000/svg">
<path d="M19.6707 44.436C16.2397 44.436 12.8087 44.4557 9.3777 44.4275C7.26784 44.4105 5.91855 42.5184 6.51855 40.4936C6.85939 39.3499 7.89038 38.5676 9.32137 38.5112C11.2171 38.4349 13.1185 38.4236 15.0171 38.4123C19.7326 38.3841 24.4538 38.4716 29.1664 38.3219C33.4735 38.1864 36.9833 34.9613 37.9157 30.5982C38.789 26.5034 36.7101 22.0499 33.0115 20.0928C31.6059 19.3501 30.1214 18.9632 28.527 18.9661C24.3298 18.9774 20.1326 18.9604 15.9383 18.9745C14.8453 18.9774 13.9664 18.582 13.3354 17.6952C11.8904 15.6591 13.034 13.0554 15.6453 12.9537C20.8425 12.7504 26.0904 12.3832 31.2425 13.2192C37.6791 14.264 41.7777 18.2996 43.6171 24.4899C46.2594 33.3771 40.3016 42.7048 31.1439 44.2468C29.1946 44.5743 27.234 44.3964 25.2791 44.4275C23.4087 44.4614 21.5383 44.436 19.6707 44.436Z" fill="#3B82F6"/>
<path d="M25.4856 31.7081C21.8039 31.4483 18.1137 31.7194 14.432 31.5273C9.50528 31.2703 5.73063 28.8502 2.91373 24.9163C-3.82993 15.4869 1.76725 2.14615 13.1842 0.327474C15.2518 -0.000113152 17.325 -0.118722 19.4011 0.141088C21.3504 0.383955 22.4771 2.33536 21.7785 4.1738C21.3673 5.26105 20.5701 5.91058 19.418 6.11108C18.1109 6.33701 16.7898 6.19298 15.4771 6.23534C10.8405 6.38219 7.125 9.5338 6.25176 14.0805C5.15599 19.785 9.21232 25.114 14.9813 25.4811C19.3532 25.7578 23.7363 25.5489 28.1109 25.6082C29.832 25.6308 30.9729 26.4158 31.4039 27.8533C31.9532 29.6804 30.5982 31.629 28.6968 31.6996C27.6292 31.742 26.5588 31.7081 25.4856 31.7081Z" fill="#374151"/>
<path d="M59.8497 5.6451C59.7821 4.96168 59.492 4.42794 58.9765 4.04952C58.461 3.6711 57.7652 3.48189 56.8835 3.48189C56.2835 3.48189 55.7793 3.56661 55.3681 3.73041C54.9568 3.89702 54.6413 4.1286 54.4244 4.42229C54.2075 4.71599 54.0976 5.05205 54.0976 5.42482C54.0864 5.73547 54.1512 6.0094 54.2976 6.24097C54.4413 6.47254 54.6413 6.67304 54.8948 6.83966C55.1483 7.00628 55.4413 7.1503 55.7765 7.27174C56.1089 7.39317 56.4638 7.49766 56.8441 7.58238L58.4047 7.95515C59.1624 8.12742 59.8554 8.35334 60.4892 8.63574C61.123 8.92097 61.6695 9.26833 62.1343 9.68063C62.5962 10.0958 62.9568 10.5815 63.2159 11.1435C63.4723 11.7055 63.6047 12.3465 63.6103 13.0695C63.6047 14.1341 63.3343 15.0576 62.8019 15.837C62.2695 16.6164 61.5004 17.218 60.4976 17.6444C59.4948 18.0736 58.2864 18.2854 56.8751 18.2854C55.4751 18.2854 54.2554 18.068 53.2188 17.6387C52.1821 17.2095 51.3737 16.5713 50.7962 15.7241C50.2159 14.8768 49.9117 13.8291 49.8835 12.5753H53.4357C53.4751 13.1598 53.6441 13.6427 53.9399 14.0325C54.2357 14.4194 54.6357 14.7131 55.1342 14.9079C55.6357 15.1028 56.199 15.2016 56.8328 15.2016C57.4554 15.2016 57.9962 15.1112 58.4554 14.9277C58.9145 14.7469 59.2723 14.4928 59.5286 14.1737C59.7821 13.8517 59.9089 13.479 59.9089 13.061C59.9089 12.6685 59.7934 12.3437 59.5652 12.0754C59.3371 11.8099 59.0019 11.584 58.5652 11.3948C58.1286 11.2084 57.5906 11.0362 56.9596 10.8837L55.0695 10.4064C53.6075 10.0506 52.4497 9.49425 51.6019 8.73458C50.754 7.97492 50.3342 6.95262 50.3399 5.66769C50.3342 4.6115 50.6159 3.6937 51.1821 2.90579C51.7512 2.12071 52.5314 1.50507 53.5258 1.0617C54.5202 0.621153 55.6497 0.400879 56.9145 0.400879C58.2019 0.400879 59.3286 0.623977 60.292 1.0617C61.2554 1.50225 62.0047 2.11789 62.5427 2.90579C63.0807 3.6937 63.3568 4.60586 63.3737 5.64227H59.8497V5.6451Z" fill="#374151"/>
<path d="M68.2212 22.9341C67.7649 22.9341 67.3367 22.9002 66.9367 22.8296C66.5395 22.7562 66.2099 22.6687 65.948 22.5613L66.762 19.8616C67.1846 19.9915 67.5677 20.0621 67.9085 20.0734C68.2494 20.0847 68.548 20.0056 68.7987 19.8362C69.0494 19.6639 69.255 19.3758 69.4127 18.9692L69.624 18.4157L64.9592 4.99023H68.7564L71.4522 14.575H71.5874L74.3057 4.99023H78.1282L73.0691 19.4493C72.8268 20.1524 72.4973 20.7653 72.0804 21.2877C71.6663 21.8101 71.1423 22.2168 70.5085 22.502C69.8775 22.7901 69.1142 22.9341 68.2212 22.9341Z" fill="#374151"/>
<path d="M83.585 10.4967V18.0397H79.9766V4.98986H83.416V7.29427H83.5681C83.8554 6.5346 84.3399 5.93309 85.016 5.48971C85.6949 5.04352 86.5174 4.82324 87.4836 4.82324C88.3878 4.82324 89.1737 5.02092 89.847 5.41911C90.5202 5.81448 91.0414 6.37928 91.4132 7.11353C91.785 7.84778 91.9737 8.7204 91.9737 9.73423V18.0425H88.3653V10.3781C88.3709 9.57891 88.1681 8.9548 87.754 8.50578C87.3428 8.05675 86.7737 7.83083 86.0498 7.83083C85.5653 7.83083 85.1371 7.93532 84.7653 8.1443C84.3963 8.35328 84.1061 8.65827 83.9005 9.05646C83.6977 9.45747 83.5906 9.93473 83.585 10.4967Z" fill="#374151"/>
<path d="M100.747 18.2939C99.4087 18.2939 98.2566 18.0199 97.2932 17.4749C96.3298 16.927 95.589 16.1532 95.0679 15.1479C94.5496 14.1425 94.2904 12.9508 94.2904 11.5755C94.2904 10.2341 94.5496 9.05646 95.0679 8.04263C95.589 7.02881 96.3214 6.23808 97.2679 5.67327C98.2144 5.10565 99.3242 4.82324 100.603 4.82324C101.462 4.82324 102.262 4.96162 103.006 5.23555C103.75 5.50948 104.397 5.92179 104.955 6.47247C105.513 7.02034 105.944 7.7094 106.257 8.53966C106.566 9.36993 106.721 10.3414 106.721 11.4512V12.4453H95.7327V10.203H103.324C103.324 9.68339 103.212 9.22308 102.986 8.81924C102.761 8.41823 102.448 8.10194 102.048 7.87319C101.651 7.64445 101.189 7.52866 100.662 7.52866C100.116 7.52866 99.6312 7.65574 99.2087 7.90708C98.7862 8.15842 98.4594 8.4973 98.22 8.91808C97.9834 9.34169 97.8594 9.81048 97.8566 10.3244V12.4594C97.8566 13.1033 97.9749 13.6624 98.2172 14.1312C98.4566 14.6028 98.7974 14.9643 99.2369 15.2185C99.6763 15.4727 100.2 15.5997 100.806 15.5997C101.206 15.5997 101.575 15.5433 101.907 15.4303C102.243 15.3173 102.527 15.1479 102.764 14.9191C103 14.6932 103.181 14.4136 103.304 14.0889L106.643 14.3092C106.474 15.114 106.127 15.8144 105.606 16.4131C105.085 17.0117 104.412 17.4749 103.589 17.8081C102.766 18.1301 101.817 18.2939 100.747 18.2939Z" fill="#374151"/>
<path d="M111.87 4.99023L114.259 9.55386L116.707 4.99023H120.411L116.639 11.5166L120.512 18.0401H116.828L114.262 13.5301L111.735 18.0401H108.005L111.87 11.5166L108.143 4.99023H111.87Z" fill="#374151"/>
<path d="M56.0272 42.8349H49.8751V25.436H56.0779C57.8244 25.436 59.3258 25.7834 60.585 26.4781C61.8441 27.17 62.8131 28.1669 63.4948 29.4631C64.1765 30.7593 64.5146 32.3125 64.5146 34.1171C64.5146 35.9301 64.1737 37.4862 63.4948 38.788C62.8131 40.0899 61.8385 41.0896 60.5709 41.7872C59.3061 42.4875 57.7906 42.8349 56.0272 42.8349ZM53.5455 39.6833H55.8751C56.9596 39.6833 57.8723 39.4884 58.616 39.1015C59.3596 38.7146 59.9174 38.1103 60.2948 37.2941C60.6695 36.4752 60.8582 35.4161 60.8582 34.1199C60.8582 32.835 60.6695 31.7845 60.2948 30.9683C59.9202 30.1522 59.3596 29.5535 58.6216 29.1666C57.8808 28.7825 56.9681 28.5877 55.8836 28.5877H53.5455V39.6833Z" fill="#3B82F6"/>
<path d="M68.9773 28.1048C68.4392 28.1048 67.9829 27.9269 67.5998 27.5654C67.2195 27.2067 67.028 26.7746 67.028 26.272C67.028 25.7749 67.2195 25.3457 67.5998 24.9842C67.9801 24.6227 68.4392 24.4448 68.9773 24.4448C69.5153 24.4448 69.9744 24.6227 70.3547 24.9842C70.735 25.3457 70.9266 25.7721 70.9266 26.272C70.9266 26.7775 70.735 27.2095 70.3547 27.5654C69.9716 27.924 69.5125 28.1048 68.9773 28.1048ZM67.1632 42.8349V29.7851H70.7716V42.8349H67.1632Z" fill="#3B82F6"/>
<path d="M79.5174 48.0003C78.3484 48.0003 77.3455 47.8393 76.5146 47.5202C75.6808 47.1982 75.0188 46.7661 74.5286 46.2155C74.0357 45.6676 73.7174 45.0463 73.5709 44.3629L76.9089 43.9139C77.0103 44.1737 77.1709 44.4194 77.3906 44.6453C77.6103 44.8741 77.9033 45.0548 78.2695 45.1932C78.6329 45.3315 79.0779 45.4021 79.6047 45.4021C80.3906 45.4021 81.0385 45.2101 81.5484 44.8289C82.061 44.4476 82.3146 43.8094 82.3146 42.9142V40.5279H82.1625C82.0047 40.8893 81.7653 41.2339 81.4498 41.5558C81.1343 41.8778 80.7258 42.1404 80.2301 42.3465C79.7343 42.5527 79.1399 42.6515 78.4498 42.6515C77.4723 42.6515 76.585 42.4228 75.785 41.9681C74.985 41.5135 74.3512 40.8131 73.8779 39.8699C73.4047 38.9266 73.1709 37.7321 73.1709 36.289C73.1709 34.8092 73.4103 33.5751 73.892 32.5839C74.3709 31.5926 75.0103 30.8499 75.8103 30.3585C76.6103 29.8672 77.4864 29.6187 78.4413 29.6187C79.1709 29.6187 79.7793 29.7401 80.2723 29.9886C80.7624 30.2371 81.1596 30.5421 81.4639 30.9064C81.7653 31.2735 81.9991 31.6294 82.1625 31.9824H82.2977V29.7909H85.8836V42.9678C85.8836 44.0805 85.6131 45.0068 85.0695 45.7552C84.5286 46.5035 83.7765 47.0627 82.8188 47.4411C81.861 47.811 80.7596 48.0003 79.5174 48.0003ZM79.5934 39.932C80.1765 39.932 80.6695 39.7852 81.0723 39.4943C81.4751 39.2034 81.7878 38.7826 82.0047 38.2376C82.2216 37.6925 82.3315 37.0374 82.3315 36.2721C82.3315 35.5068 82.2244 34.8431 82.0103 34.2811C81.7963 33.7163 81.4864 33.2786 81.0779 32.9679C80.6723 32.6573 80.1765 32.502 79.5934 32.502C79.0019 32.502 78.5005 32.663 78.0948 32.9821C77.6892 33.3012 77.3794 33.7446 77.1709 34.3122C76.9625 34.8798 76.8582 35.5322 76.8582 36.2749C76.8582 37.0289 76.9653 37.6784 77.1765 38.2235C77.3878 38.7713 77.6948 39.1921 78.1005 39.4915C78.5005 39.7795 79.0019 39.932 79.5934 39.932Z" fill="#3B82F6"/>
<path d="M90.5774 28.1048C90.0393 28.1048 89.583 27.9269 89.1999 27.5654C88.8196 27.2067 88.6281 26.7746 88.6281 26.272C88.6281 25.7749 88.8196 25.3457 89.1999 24.9842C89.5802 24.6227 90.0393 24.4448 90.5774 24.4448C91.1154 24.4448 91.5745 24.6227 91.9548 24.9842C92.3351 25.3457 92.5266 25.7721 92.5266 26.272C92.5266 26.7775 92.3351 27.2095 91.9548 27.5654C91.5717 27.924 91.1126 28.1048 90.5774 28.1048ZM88.7633 42.8349V29.7851H92.3717V42.8349H88.7633Z" fill="#3B82F6"/>
<path d="M102.176 29.785V32.5045H94.337V29.785H102.176ZM96.1173 26.6616H99.7286V38.8247C99.7286 39.1608 99.7793 39.4178 99.8807 39.6041C99.9821 39.7877 100.126 39.9148 100.309 39.9882C100.492 40.0616 100.706 40.0983 100.948 40.0983C101.117 40.0983 101.286 40.0814 101.458 40.0503C101.627 40.0193 101.757 39.9967 101.847 39.9769L102.416 42.6682C102.236 42.7247 101.982 42.7896 101.653 42.8687C101.326 42.945 100.926 42.9902 100.458 43.0099C99.5877 43.0438 98.8272 42.9252 98.1737 42.6626C97.5201 42.3971 97.0131 41.982 96.6525 41.4228C96.2891 40.8608 96.1117 40.1548 96.1173 39.2991V26.6616Z" fill="#3B82F6"/>
<path d="M108.232 43.0836C107.401 43.0836 106.663 42.9368 106.013 42.6459C105.362 42.355 104.849 41.9201 104.475 41.3468C104.1 40.7736 103.911 40.0534 103.911 39.1949C103.911 38.472 104.044 37.862 104.308 37.3678C104.573 36.8764 104.937 36.4782 105.393 36.1789C105.849 35.8795 106.37 35.6508 106.956 35.4983C107.539 35.3458 108.156 35.2385 108.799 35.1763C109.556 35.0973 110.165 35.0238 110.63 34.9504C111.092 34.8798 111.43 34.7725 111.638 34.6341C111.846 34.4929 111.951 34.2811 111.951 34.0044V33.9535C111.951 33.4141 111.782 32.999 111.446 32.7025C111.111 32.4088 110.635 32.2619 110.018 32.2619C109.368 32.2619 108.852 32.406 108.469 32.6912C108.086 32.9764 107.83 33.3351 107.706 33.7672L104.368 33.4932C104.537 32.6997 104.869 32.0134 105.368 31.4345C105.863 30.8556 106.508 30.4066 107.297 30.0903C108.086 29.7768 108.999 29.6187 110.038 29.6187C110.762 29.6187 111.455 29.7034 112.12 29.8728C112.782 30.0423 113.373 30.3077 113.892 30.6635C114.407 31.0194 114.815 31.4769 115.117 32.036C115.415 32.5924 115.565 33.2616 115.565 34.0354V42.8379H112.142V41.0305H112.041C111.832 41.4372 111.551 41.7959 111.201 42.1065C110.852 42.4143 110.43 42.6544 109.939 42.8266C109.446 42.9961 108.877 43.0836 108.232 43.0836ZM109.269 40.5844C109.801 40.5844 110.269 40.477 110.675 40.2652C111.08 40.0534 111.399 39.7654 111.632 39.4039C111.863 39.0424 111.979 38.6301 111.979 38.1726V36.7889C111.866 36.8623 111.711 36.9301 111.517 36.9894C111.323 37.0487 111.103 37.1023 110.861 37.1503C110.615 37.1983 110.373 37.2407 110.131 37.2774C109.889 37.3141 109.669 37.348 109.469 37.3734C109.046 37.4356 108.675 37.5344 108.359 37.67C108.044 37.8055 107.796 37.9891 107.621 38.2178C107.446 38.4466 107.359 38.7318 107.359 39.0735C107.359 39.5649 107.539 39.9405 107.897 40.1975C108.258 40.4573 108.714 40.5844 109.269 40.5844Z" fill="#3B82F6"/>
<path d="M121.978 25.436V42.8349H118.369V25.436H121.978Z" fill="#3B82F6"/>
<path d="M126.968 43.0552C126.407 43.0552 125.931 42.8575 125.531 42.4565C125.134 42.0583 124.934 41.5754 124.934 41.0163C124.934 40.4627 125.134 39.9855 125.531 39.5901C125.931 39.1948 126.41 38.9971 126.968 38.9971C127.508 38.9971 127.985 39.1948 128.39 39.5901C128.796 39.9883 128.999 40.4627 128.999 41.0163C128.999 41.389 128.906 41.7307 128.714 42.0414C128.525 42.352 128.278 42.5949 127.973 42.7813C127.672 42.9648 127.337 43.0552 126.968 43.0552Z" fill="#3B82F6"/>
</svg>
