<svg width="508" height="787" viewBox="0 0 508 787" fill="none" xmlns="http://www.w3.org/2000/svg">
<path d="M409.47 -13V94.2014C409.47 102.298 404.306 108.861 397.935 108.861H316.474C310.104 108.861 304.94 115.425 304.94 123.521V227.058C304.94 235.154 299.776 241.718 293.405 241.718H211.944C205.574 241.718 200.41 248.281 200.41 256.378V359.914C200.41 368.011 195.245 374.574 188.875 374.574H107.414C101.043 374.574 95.8794 381.138 95.8794 389.234V492.771C95.8794 500.867 90.7153 507.431 84.345 507.431H5.36442e-07M514 -13V94.2014C514 102.298 508.836 108.861 502.466 108.861H421.004C414.634 108.861 409.47 115.425 409.47 123.521V227.058C409.47 235.154 404.306 241.718 397.935 241.718H316.474C310.104 241.718 304.94 248.281 304.94 256.378V359.914C304.94 368.011 310.104 374.574 316.474 374.574H397.935C404.306 374.574 409.47 368.011 409.47 359.914V254.545L409.571 253.679C410.345 247.039 414.779 242.081 420.06 241.952L429.655 241.718H502.466C508.836 241.718 514 248.281 514 256.378V359.914C514 368.011 508.836 374.574 502.466 374.574H420.283L417.545 374.806C413.001 375.191 409.47 379.988 409.47 385.777V397.022M409.47 385.569V492.771C409.47 500.867 404.306 507.431 397.935 507.431H316.474C310.104 507.431 304.94 513.994 304.94 522.091V625.627C304.94 633.724 299.776 640.287 293.405 640.287H211.944C205.574 640.287 200.41 646.851 200.41 654.947V758.484C200.41 766.58 195.245 773.144 188.875 773.144H107.414C101.043 773.144 95.8794 779.707 95.8794 787.804V891.34C95.8794 899.436 90.7153 906 84.345 906H5.36442e-07" stroke="url(#paint0_linear_235_669)" stroke-opacity="0.5" stroke-width="2"/>
<defs>
<linearGradient id="paint0_linear_235_669" x1="514" y1="-13" x2="-138.942" y2="622.712" gradientUnits="userSpaceOnUse">
<stop offset="0.0819437" stop-color="#F7F7F7"/>
<stop offset="0.208333" stop-color="#12C2E9"/>
<stop offset="0.526042" stop-color="#C471ED"/>
<stop offset="0.9375" stop-color="#F64F59"/>
</linearGradient>
</defs>
</svg>
